<?xml version="1.0" encoding="UTF-8" standalone="no"?>
<!-- Generator: Adobe Illustrator 17.0.0, SVG Export Plug-In . SVG Version: 6.00 Build 0)  -->

<svg
   xmlns:dc="http://purl.org/dc/elements/1.1/"
   xmlns:cc="http://creativecommons.org/ns#"
   xmlns:rdf="http://www.w3.org/1999/02/22-rdf-syntax-ns#"
   xmlns:svg="http://www.w3.org/2000/svg"
   xmlns="http://www.w3.org/2000/svg"
   xmlns:sodipodi="http://sodipodi.sourceforge.net/DTD/sodipodi-0.dtd"
   xmlns:inkscape="http://www.inkscape.org/namespaces/inkscape"
   version="1.1"
   id="Layer_1"
   x="0px"
   y="0px"
   width="274.43744"
   height="131.62112"
   viewBox="0 0 274.43744 131.62113"
   enable-background="new 0 0 504 360"
   xml:space="preserve"
   sodipodi:docname="keebsLogoTemp.svg"
   inkscape:version="0.92.4 5da689c313, 2019-01-14"
   inkscape:export-filename="/home/alvaro/Desktop/AcheronProject/KeebsPCB/graphics/keebsLogo.png"
   inkscape:export-xdpi="10000"
   inkscape:export-ydpi="10000"><metadata
   id="metadata39"><rdf:RDF><cc:Work
       rdf:about=""><dc:format>image/svg+xml</dc:format><dc:type
         rdf:resource="http://purl.org/dc/dcmitype/StillImage" /><dc:title /></cc:Work></rdf:RDF></metadata><defs
   id="defs37">
	
	

		
		
		
		
	</defs><sodipodi:namedview
   pagecolor="#ffffff"
   bordercolor="#666666"
   borderopacity="1"
   objecttolerance="10"
   gridtolerance="10"
   guidetolerance="10"
   inkscape:pageopacity="0"
   inkscape:pageshadow="2"
   inkscape:window-width="1920"
   inkscape:window-height="1052"
   id="namedview35"
   showgrid="false"
   inkscape:zoom="4"
   inkscape:cx="174.82848"
   inkscape:cy="63.225204"
   inkscape:window-x="1920"
   inkscape:window-y="200"
   inkscape:window-maximized="1"
   inkscape:current-layer="Layer_1"
   fit-margin-top="0"
   fit-margin-left="0"
   fit-margin-right="0"
   fit-margin-bottom="0"
   showborder="true" />

<rect
   style="fill:#ffffff;fill-opacity:1;stroke:#000000;stroke-width:0.75590551;stroke-linecap:round;stroke-linejoin:round;stroke-miterlimit:4;stroke-dasharray:none;stroke-dashoffset:0;stroke-opacity:1"
   id="rect878"
   width="198.75"
   height="108.25"
   x="29"
   y="12.621123" /><path
   inkscape:connector-curvature="0"
   style="fill:#ffffff;fill-opacity:1;stroke:#000000;stroke-width:0.51192653;stroke-miterlimit:4;stroke-dasharray:none;stroke-opacity:1"
   id="path868"
   d="m 185.47464,65.04233 17.9281,-22.566022 h 1.27321 v -8.37115 H 177.9218 v 8.436063 h 13.34436 c -4.91341,6.825007 -10.4325,14.585368 -13.34436,18.683541 v 7.825784 c 5.73171,7.460332 11.28045,13.684772 16.4668,20.324754 l -51.36926,0.0598 H 123.07231 V 66.863968 l -9.19151,10.192277 v 20.750007 h 29.13854 5.26149 57.85181 v -8.37115 z"
   inkscape:export-xdpi="5000"
   inkscape:export-ydpi="5000" /><path
   d="m 185.47464,66.810097 17.9281,-22.566022 h 1.27321 v -8.37115 H 177.9218 v 8.436063 h 13.34436 c -4.91341,6.825007 -10.4325,14.585368 -13.34436,18.683541 v 7.825784 c 5.73171,7.460332 11.28045,13.684772 16.4668,20.324754 l -51.36926,0.0598 H 123.07231 V 68.631735 l -9.19151,10.192277 v 20.750007 h 29.13854 5.26149 57.85181 v -8.37115 z"
   id="path26"
   style="fill:#190000;fill-opacity:1;stroke:#00000b;stroke-width:0.5102362;stroke-linejoin:round;stroke-miterlimit:4;stroke-dasharray:none;stroke-opacity:1"
   inkscape:connector-curvature="0"
   inkscape:export-xdpi="5000"
   inkscape:export-ydpi="5000" /><path
   style="color:#000000;font-style:normal;font-variant:normal;font-weight:normal;font-stretch:normal;font-size:medium;line-height:normal;font-family:sans-serif;font-variant-ligatures:normal;font-variant-position:normal;font-variant-caps:normal;font-variant-numeric:normal;font-variant-alternates:normal;font-feature-settings:normal;text-indent:0;text-align:start;text-decoration:none;text-decoration-line:none;text-decoration-style:solid;text-decoration-color:#000000;letter-spacing:normal;word-spacing:normal;text-transform:none;writing-mode:lr-tb;direction:ltr;text-orientation:mixed;dominant-baseline:auto;baseline-shift:baseline;text-anchor:start;white-space:normal;shape-padding:0;clip-rule:nonzero;display:inline;overflow:visible;visibility:visible;opacity:1;isolation:auto;mix-blend-mode:normal;color-interpolation:sRGB;color-interpolation-filters:linearRGB;solid-color:#000000;solid-opacity:1;vector-effect:none;fill:#000042;fill-opacity:1;fill-rule:nonzero;stroke:#00000b;stroke-width:3.02362205;stroke-linecap:butt;stroke-linejoin:round;stroke-miterlimit:4;stroke-dasharray:none;stroke-dashoffset:0;stroke-opacity:1;color-rendering:auto;image-rendering:auto;shape-rendering:auto;text-rendering:auto;enable-background:accumulate"
   d="m 177.66602,32.882812 a 0.96599582,0.96599582 0 0 0 -0.9668,0.966797 v 8.947266 a 0.96599582,0.96599582 0 0 0 0.9668,0.966797 h 11.2246 c -4.49252,6.256165 -9.35423,13.079719 -11.96484,16.753906 l -0.041,0.05664 a 0.96599582,0.96599582 0 0 0 -0.18555,0.568359 v 7.996094 a 0.96599582,0.96599582 0 0 0 0.20117,0.58789 l 0.0527,0.06836 c 5.2007,6.769156 10.15619,12.456519 14.875,18.361328 l -48.80859,0.05664 H 124.29297 V 66.197266 a 0.96599582,0.96599582 0 0 0 -1.68164,-0.646485 l -9.70313,10.759766 a 0.96599582,0.96599582 0 0 0 -0.25,0.646484 V 98.0625 a 0.96599582,0.96599582 0 0 0 0.9668,0.964844 h 29.39453 5.26172 58.10742 a 0.96599582,0.96599582 0 0 0 0.96485,-0.964844 v -8.720703 a 0.96599582,0.96599582 0 0 0 -0.22852,-0.625 l -20.07031,-23.699219 16.9375,-21.320312 h 0.93945 a 0.96599582,0.96599582 0 0 0 0.9668,-0.964844 v -8.882813 a 0.96599582,0.96599582 0 0 0 -0.9668,-0.966797 z m 0.96484,1.933594 h 25.33594 v 6.949219 h -0.44141 a 0.96599582,0.96599582 0 0 0 -0.75586,0.365234 l -17.7207,22.304688 a 0.96599582,0.96599582 0 0 0 0.0195,1.226562 l 20.35352,24.033203 v 7.400391 h -57.14063 -5.26172 -28.42969 V 77.328125 l 7.77149,-8.615234 v 20.466797 a 0.96599582,0.96599582 0 0 0 0.96679,0.964843 h 19.69141 l 50.83203,-0.05859 a 0.96599582,0.96599582 0 0 0 0.75977,-1.5625 c -5.06317,-6.447172 -10.44064,-12.5289 -15.98047,-19.722657 v -7.34375 L 178.50781,61.625 c 2.84971,-4.010687 8.2185,-11.555584 13.04492,-18.263672 a 0.96599582,0.96599582 0 0 0 -0.7832,-1.529297 h -12.13867 z"
   id="path864"
   inkscape:connector-curvature="0"
   inkscape:export-xdpi="5000"
   inkscape:export-ydpi="5000" /><path
   style="color:#000000;font-style:normal;font-variant:normal;font-weight:normal;font-stretch:normal;font-size:medium;line-height:normal;font-family:sans-serif;font-variant-ligatures:normal;font-variant-position:normal;font-variant-caps:normal;font-variant-numeric:normal;font-variant-alternates:normal;font-feature-settings:normal;text-indent:0;text-align:start;text-decoration:none;text-decoration-line:none;text-decoration-style:solid;text-decoration-color:#000000;letter-spacing:normal;word-spacing:normal;text-transform:none;writing-mode:lr-tb;direction:ltr;text-orientation:mixed;dominant-baseline:auto;baseline-shift:baseline;text-anchor:start;white-space:normal;shape-padding:0;clip-rule:nonzero;display:inline;overflow:visible;visibility:visible;opacity:1;isolation:auto;mix-blend-mode:normal;color-interpolation:sRGB;color-interpolation-filters:linearRGB;solid-color:#000000;solid-opacity:1;vector-effect:none;fill:#fffffe;fill-opacity:1;fill-rule:nonzero;stroke:#000000;stroke-width:3.02362205;stroke-linecap:round;stroke-linejoin:round;stroke-miterlimit:4;stroke-dasharray:none;stroke-dashoffset:0;stroke-opacity:1;color-rendering:auto;image-rendering:auto;shape-rendering:auto;text-rendering:auto;enable-background:accumulate"
   d="m 69.015625,32.173828 a 1.9319916,1.9319916 0 0 0 -1.931641,1.931641 v 8.371093 a 1.9319916,1.9319916 0 0 0 1.931641,1.931641 h 4.164063 v 35.013672 a 1.9319916,1.9319916 0 0 0 1.93164,1.933594 h 9.191406 a 1.9319916,1.9319916 0 0 0 1.931641,-1.933594 V 52.757812 c 0,-1.29749 -0.172143,-3.053949 -0.246094,-4.550781 0.992064,1.115401 2.103295,2.476354 3.015625,3.429688 a 1.9319916,1.9319916 0 0 0 0.0078,0.0078 L 107.21093,70.48241 a 1.9319916,1.9319916 0 0 0 2.7832,-0.0039 l 18.08203,-18.810547 c 0.97832,-0.976651 2.04161,-2.322825 3.04883,-3.462891 -0.074,1.497577 -0.24805,3.254673 -0.24805,4.552734 v 26.664063 a 1.9319916,1.9319916 0 0 0 1.93164,1.933594 H 142 a 1.9319916,1.9319916 0 0 0 1.93164,-1.933594 V 44.408203 h 4.16602 a 1.9319916,1.9319916 0 0 0 1.93164,-1.931641 v -8.371093 a 1.9319916,1.9319916 0 0 0 -1.93164,-1.931641 H 129.5332 a 1.9319916,1.9319916 0 0 0 -1.39453,0.59375 L 108.5957,53.160156 88.876953,32.761719 a 1.9319916,1.9319916 0 0 0 -1.388672,-0.587891 z"
   id="path853"
   inkscape:export-xdpi="5000"
   inkscape:export-ydpi="5000" />
<path
   style="color:#000000;font-style:normal;font-variant:normal;font-weight:normal;font-stretch:normal;font-size:medium;line-height:normal;font-family:sans-serif;font-variant-ligatures:normal;font-variant-position:normal;font-variant-caps:normal;font-variant-numeric:normal;font-variant-alternates:normal;font-feature-settings:normal;text-indent:0;text-align:start;text-decoration:none;text-decoration-line:none;text-decoration-style:solid;text-decoration-color:#000000;letter-spacing:normal;word-spacing:normal;text-transform:none;writing-mode:lr-tb;direction:ltr;text-orientation:mixed;dominant-baseline:auto;baseline-shift:baseline;text-anchor:start;white-space:normal;shape-padding:0;clip-rule:nonzero;display:inline;overflow:visible;visibility:visible;opacity:1;isolation:auto;mix-blend-mode:normal;color-interpolation:sRGB;color-interpolation-filters:linearRGB;solid-color:#000000;solid-opacity:1;vector-effect:none;fill:none;fill-opacity:1;fill-rule:nonzero;stroke:#f7ffff;stroke-width:0.51023622;stroke-linecap:butt;stroke-linejoin:round;stroke-miterlimit:4;stroke-dasharray:none;stroke-dashoffset:0;stroke-opacity:1;color-rendering:auto;image-rendering:auto;shape-rendering:auto;text-rendering:auto;enable-background:accumulate"
   d="m 154.71409,33.84978 v 8.881737 h 6.00368 v 36.946511 h 9.70333 V 79.422467 33.84978 Z"
   id="path852"
   inkscape:connector-curvature="0"
   inkscape:export-xdpi="5000"
   inkscape:export-ydpi="5000" /><path
   style="fill:none;fill-opacity:1;stroke:#fffffe;stroke-width:3.86359692;stroke-linecap:round;stroke-linejoin:round;stroke-miterlimit:4;stroke-dasharray:none;stroke-opacity:1"
   d="m 133.35454,42.751292 c -0.3629,3.817568 -0.54537,7.185348 -0.54537,10.007251 v 26.664195 h 9.19151 V 42.475797 h 6.09665 v -8.370639 h -18.56342 l -20.93248,21.84074 -21.112904,-21.84074 h -18.47347 v 8.37115 h 6.096659 v 36.94643 h 9.191501 V 52.758543 c 0,-2.821903 -0.182471,-6.189683 -0.545367,-10.007251 2.456962,3.002329 4.640985,5.458779 6.642537,7.550289 l 18.200534,18.838412 18.11057,-18.838412 c 2.09509,-2.09151 4.27911,-4.638429 6.64305,-7.550289 z"
   id="path839"
   inkscape:connector-curvature="0"
   inkscape:export-xdpi="5000"
   inkscape:export-ydpi="5000" /><path
   d="m 133.35454,42.751292 c -0.3629,3.817568 -0.54537,7.185348 -0.54537,10.007251 v 26.664195 h 9.19151 V 42.475797 h 6.09665 v -8.370639 h -18.56342 l -20.93248,21.84074 -21.112904,-21.84074 h -18.47347 v 8.37115 h 6.096659 v 36.94643 h 9.191501 V 52.758543 c 0,-2.821903 -0.182471,-6.189683 -0.545367,-10.007251 2.456962,3.002329 4.640985,5.458779 6.642537,7.550289 l 18.200534,18.838412 18.11057,-18.838412 c 2.09509,-2.09151 4.27911,-4.638429 6.64305,-7.550289 z"
   id="path22"
   style="fill:#00000e;fill-opacity:1;stroke:none;stroke-width:0.51112169;stroke-linecap:round;stroke-linejoin:round;stroke-opacity:1"
   inkscape:connector-curvature="0"
   inkscape:export-xdpi="5000"
   inkscape:export-ydpi="5000" /><path
   style="fill:#000001;fill-opacity:1;stroke:#000000;stroke-width:3.28405714;stroke-linecap:round;stroke-linejoin:round;stroke-miterlimit:4;stroke-dasharray:none;stroke-opacity:1"
   d="m 70.382448,89.434591 v 8.37115 H 104.77992 V 77.055734 L 95.587902,66.863457 v 22.571134 z"
   id="polygon879"
   inkscape:connector-curvature="0"
   inkscape:export-xdpi="5000"
   inkscape:export-ydpi="5000" /><polygon
   points="117.691,199.944 117.691,216.322 184.989,216.322 184.989,175.725 167.005,155.784 167.005,199.944 "
   id="polygon24"
   style="fill:#f7ffff;fill-opacity:1;stroke:none;stroke-opacity:1"
   transform="matrix(0.51112167,0,0,0.51112167,10.228029,-12.761122)"
   inkscape:export-xdpi="5000"
   inkscape:export-ydpi="5000" /><path
   style="color:#000000;font-style:normal;font-variant:normal;font-weight:normal;font-stretch:normal;font-size:medium;line-height:normal;font-family:sans-serif;font-variant-ligatures:normal;font-variant-position:normal;font-variant-caps:normal;font-variant-numeric:normal;font-variant-alternates:normal;font-feature-settings:normal;text-indent:0;text-align:start;text-decoration:none;text-decoration-line:none;text-decoration-style:solid;text-decoration-color:#000000;letter-spacing:normal;word-spacing:normal;text-transform:none;writing-mode:lr-tb;direction:ltr;text-orientation:mixed;dominant-baseline:auto;baseline-shift:baseline;text-anchor:start;white-space:normal;shape-padding:0;clip-rule:nonzero;display:inline;overflow:visible;visibility:visible;opacity:1;isolation:auto;mix-blend-mode:normal;color-interpolation:sRGB;color-interpolation-filters:linearRGB;solid-color:#000000;solid-opacity:1;vector-effect:none;fill:#f1ffff;fill-opacity:1;fill-rule:nonzero;stroke:#000400;stroke-width:1.88976383;stroke-linecap:round;stroke-linejoin:round;stroke-miterlimit:4;stroke-dasharray:none;stroke-dashoffset:0;stroke-opacity:1;color-rendering:auto;image-rendering:auto;shape-rendering:auto;text-rendering:auto;enable-background:accumulate"
   d="m 155.22461,32.173828 a 2.1243069,2.1243069 0 0 0 -2.12305,2.125 v 7.859375 a 2.1243069,2.1243069 0 0 0 2.12305,2.123047 h 3.88086 v 34.822266 a 2.1243069,2.1243069 0 0 0 2.12305,2.125 h 8.68164 a 2.1243069,2.1243069 0 0 0 2.12304,-2.125 V 34.298828 a 2.1243069,2.1243069 0 0 0 -2.12304,-2.125 z"
   id="path862"
   inkscape:connector-curvature="0"
   inkscape:export-xdpi="5000"
   inkscape:export-ydpi="5000" /><path
   style="color:#000000;font-style:normal;font-variant:normal;font-weight:normal;font-stretch:normal;font-size:medium;line-height:normal;font-family:sans-serif;font-variant-ligatures:normal;font-variant-position:normal;font-variant-caps:normal;font-variant-numeric:normal;font-variant-alternates:normal;font-feature-settings:normal;text-indent:0;text-align:start;text-decoration:none;text-decoration-line:none;text-decoration-style:solid;text-decoration-color:#000000;letter-spacing:normal;word-spacing:normal;text-transform:none;writing-mode:lr-tb;direction:ltr;text-orientation:mixed;dominant-baseline:auto;baseline-shift:baseline;text-anchor:start;white-space:normal;shape-padding:0;clip-rule:nonzero;display:inline;overflow:visible;visibility:visible;opacity:1;isolation:auto;mix-blend-mode:normal;color-interpolation:sRGB;color-interpolation-filters:linearRGB;solid-color:#000000;solid-opacity:1;vector-effect:none;fill:none;fill-opacity:1;fill-rule:nonzero;stroke:#fffff9;stroke-width:1.93179846;stroke-linecap:round;stroke-linejoin:round;stroke-miterlimit:4;stroke-dasharray:none;stroke-dashoffset:0;stroke-opacity:1;color-rendering:auto;image-rendering:auto;shape-rendering:auto;text-rendering:auto;enable-background:accumulate"
   d="m 177.66564,33.849597 v 8.947624 h 13.10348 c -4.83168,6.715399 -10.20679,14.270199 -13.05557,18.279587 l -0.0479,0.06589 v 7.99526 l 0.0529,0.06888 c 5.61826,7.312654 11.04604,13.437231 16.13228,19.913781 l -50.83165,0.0589 H 123.32801 V 66.198008 l -9.70333,10.759511 v 21.104734 h 29.39449 5.26196 58.10715 V 89.341239 L 185.80565,65.037003 203.5262,42.732332 h 1.40558 v -8.882735 z"
   id="path877"
   inkscape:connector-curvature="0"
   inkscape:export-xdpi="5000"
   inkscape:export-ydpi="5000" /><path
   style="color:#000000;font-style:normal;font-variant:normal;font-weight:normal;font-stretch:normal;font-size:medium;line-height:normal;font-family:sans-serif;font-variant-ligatures:normal;font-variant-position:normal;font-variant-caps:normal;font-variant-numeric:normal;font-variant-alternates:normal;font-feature-settings:normal;text-indent:0;text-align:start;text-decoration:none;text-decoration-line:none;text-decoration-style:solid;text-decoration-color:#000000;letter-spacing:normal;word-spacing:normal;text-transform:none;writing-mode:lr-tb;direction:ltr;text-orientation:mixed;dominant-baseline:auto;baseline-shift:baseline;text-anchor:start;white-space:normal;shape-padding:0;clip-rule:nonzero;display:inline;overflow:visible;visibility:visible;opacity:1;isolation:auto;mix-blend-mode:normal;color-interpolation:sRGB;color-interpolation-filters:linearRGB;solid-color:#000000;solid-opacity:1;vector-effect:none;fill:#000000;fill-opacity:1;fill-rule:nonzero;stroke:none;stroke-width:3.86267717;stroke-linecap:round;stroke-linejoin:round;stroke-miterlimit:4;stroke-dasharray:none;stroke-dashoffset:0;stroke-opacity:1;color-rendering:auto;image-rendering:auto;shape-rendering:auto;text-rendering:auto;enable-background:accumulate"
   d="m 70.947266,36.037109 h 15.722656 l 20.542968,21.251953 a 1.9319916,1.9319916 0 0 0 2.7832,-0.0059 l 20.36133,-21.246094 h 15.8086 v 4.507813 H 142 a 1.9319916,1.9319916 0 0 0 -1.93164,1.93164 v 35.013672 h -5.32813 V 52.757812 c 0,-2.738626 0.17857,-6.052472 0.53711,-9.824218 a 1.9319916,1.9319916 0 0 0 -3.42187,-1.400391 c -2.34439,2.887779 -4.49456,5.388629 -6.50977,7.400391 a 1.9319916,1.9319916 0 0 0 -0.0273,0.0293 L 108.5977,66.355472 91.796915,48.9668 91.789115,48.959 c -1.962718,-2.051311 -4.111124,-4.467165 -6.537109,-7.43164 a 1.9319916,1.9319916 0 0 0 -3.417969,1.40625 c 0.358541,3.771747 0.53711,7.085592 0.53711,9.824218 V 77.490234 H 77.042969 V 42.476562 a 1.9319916,1.9319916 0 0 0 -1.931641,-1.93164 h -4.164062 z"
   id="path846"
   inkscape:export-xdpi="5000"
   inkscape:export-ydpi="5000" /><path
   style="color:#000000;font-style:normal;font-variant:normal;font-weight:normal;font-stretch:normal;font-size:medium;line-height:normal;font-family:sans-serif;font-variant-ligatures:normal;font-variant-position:normal;font-variant-caps:normal;font-variant-numeric:normal;font-variant-alternates:normal;font-feature-settings:normal;text-indent:0;text-align:start;text-decoration:none;text-decoration-line:none;text-decoration-style:solid;text-decoration-color:#000000;letter-spacing:normal;word-spacing:normal;text-transform:none;writing-mode:lr-tb;direction:ltr;text-orientation:mixed;dominant-baseline:auto;baseline-shift:baseline;text-anchor:start;white-space:normal;shape-padding:0;clip-rule:nonzero;display:inline;overflow:visible;visibility:visible;opacity:1;isolation:auto;mix-blend-mode:normal;color-interpolation:sRGB;color-interpolation-filters:linearRGB;solid-color:#000000;solid-opacity:1;vector-effect:none;fill:#000000;fill-opacity:1;fill-rule:nonzero;stroke:#000400;stroke-width:1.88976378;stroke-linecap:round;stroke-linejoin:round;stroke-miterlimit:4;stroke-dasharray:none;stroke-dashoffset:0;stroke-opacity:1;color-rendering:auto;image-rendering:auto;shape-rendering:auto;text-rendering:auto;enable-background:accumulate"
   d="m 157.34961,36.484375 h 10.43555 v 40.558594 h -4.43164 V 42.220703 a 2.1243069,2.1243069 0 0 0 -2.125,-2.125 h -3.87891 z"
   id="path855"
   inkscape:export-xdpi="5000"
   inkscape:export-ydpi="5000" /><path
   style="color:#000000;font-style:normal;font-variant:normal;font-weight:normal;font-stretch:normal;font-size:medium;line-height:normal;font-family:sans-serif;font-variant-ligatures:normal;font-variant-position:normal;font-variant-caps:normal;font-variant-numeric:normal;font-variant-alternates:normal;font-feature-settings:normal;text-indent:0;text-align:start;text-decoration:none;text-decoration-line:none;text-decoration-style:solid;text-decoration-color:#000000;letter-spacing:normal;word-spacing:normal;text-transform:none;writing-mode:lr-tb;direction:ltr;text-orientation:mixed;dominant-baseline:auto;baseline-shift:baseline;text-anchor:start;white-space:normal;shape-padding:0;clip-rule:nonzero;display:inline;overflow:visible;visibility:visible;opacity:1;isolation:auto;mix-blend-mode:normal;color-interpolation:sRGB;color-interpolation-filters:linearRGB;solid-color:#000000;solid-opacity:1;vector-effect:none;fill:#000000;fill-opacity:1;fill-rule:nonzero;stroke:#000000;stroke-width:0.75590551;stroke-linecap:round;stroke-linejoin:round;stroke-miterlimit:4;stroke-dasharray:none;stroke-dashoffset:0;stroke-opacity:1;color-rendering:auto;image-rendering:auto;shape-rendering:auto;text-rendering:auto;enable-background:accumulate"
   d="M 97.23039,71.136719 103.1386,77.6875 V 96.164062 H 72.025312 v -5.08789 h 23.5625 a 1.6421928,1.6421928 0 0 0 1.642578,-1.640625 z"
   id="path869"
   inkscape:connector-curvature="0"
   inkscape:export-xdpi="5000"
   inkscape:export-ydpi="5000" /></svg>