M48
;GenerationSoftware,Autodesk,EAGLE,9.2.1*%
;CreationDate,2018-10-25T21:01:05Z*%
FMAT,2
ICI,OFF
METRIC,TZ,000.000
T10C0.350
T9C0.800
T8C0.900
T7C1.000
T6C1.016
T5C1.700
T4C2.700
T3C3.000
T2C3.050
T1C4.000
%
G90
M71
T1
X228600Y66675
X133350Y66675
X61912Y9525
X138113Y28575
X238125Y85725
X161925Y85725
X119062Y28575
X223837Y9525
X276225Y85725
X100012Y28575
X219075Y85725
X271463Y66675
X80963Y28575
X171450Y66675
X190500Y66675
X61912Y28575
X247650Y66675
X76200Y66675
X35719Y28575
X95250Y66675
X47625Y85725
X9525Y28575
X104775Y85725
X142875Y85725
X271463Y9525
X66675Y85725
X157163Y28575
X247650Y9525
X200025Y85725
X114300Y66675
X142875Y9525
X85725Y85725
X209550Y66675
X195262Y28575
X176212Y28575
X85725Y1285
X200025Y1285
X38100Y9525
X180975Y85725
X257175Y85725
X14287Y9525
X123825Y85725
X14287Y66675
X152400Y66675
X57150Y66675
X28575Y85725
X38100Y66675
X9525Y85725
X269081Y47625
X242887Y47625
X223837Y47625
X204787Y47625
X21431Y47625
X185737Y47625
X166688Y47625
X147638Y47625
X128587Y47625
X109537Y47625
X90487Y47625
X71438Y47625
X52387Y47625
X9531Y39385
X33331Y39385
X264319Y28575
X252419Y20335
X276219Y20335
X233362Y28575
X214312Y28575
T2
X85725Y16525
X200025Y16525
X252419Y35575
X276219Y35575
X33331Y54625
X9531Y54625
T3
X45085Y90805
X70485Y88265
X64135Y90805
X89535Y88265
X83185Y90805
X260985Y88265
X254635Y90805
X241935Y88265
X235585Y90805
X222885Y88265
X216535Y90805
X203835Y88265
X197485Y90805
X184785Y88265
X183197Y52705
X165735Y88265
X159385Y90805
X146685Y88265
X140335Y90805
X127635Y88265
X121285Y90805
X108585Y88265
X102235Y90805
X18098Y69215
X11747Y71755
X213360Y69215
X207010Y71755
X280035Y88265
X273685Y90805
X118110Y69215
X268923Y14605
X99060Y69215
X92710Y71755
X80010Y69215
X73660Y71755
X251460Y69215
X245110Y71755
X194310Y69215
X187960Y71755
X175260Y69215
X168910Y71755
X275273Y69215
X268923Y71755
X137160Y69215
X130810Y71755
X232410Y69215
X226060Y71755
X178435Y90805
X156210Y69215
X149860Y71755
X160973Y31115
X60960Y69215
X54610Y71755
X154623Y33655
X32385Y88265
X26035Y90805
X141923Y31115
X41910Y69215
X35560Y71755
X135573Y33655
X13335Y88265
X6985Y90805
X122872Y31115
X272891Y50165
X266541Y52705
X116522Y33655
X246697Y50165
X240347Y52705
X103822Y31115
X227647Y50165
X221297Y52705
X97472Y33655
X84773Y31115
X202247Y52705
X78423Y33655
X189547Y50165
X65723Y31115
X170498Y50165
X164148Y52705
X59372Y33655
X151448Y50165
X145098Y52705
X39529Y31115
X132398Y50165
X126047Y52705
X33179Y33655
X113347Y50165
X106997Y52705
X13335Y31115
X94297Y50165
X87947Y52705
X6985Y33655
X75248Y50165
X68898Y52705
X275273Y12065
X56197Y50165
X49847Y52705
X111760Y71755
X25241Y50165
X18891Y52705
X251460Y12065
X245110Y14605
X146685Y12065
X140335Y14605
X41910Y12065
X268129Y31115
X261779Y33655
X35560Y14605
X18098Y12065
X11747Y14605
X65723Y12065
X59372Y14605
X237172Y31115
X230822Y33655
X227647Y12065
X218122Y31115
X211772Y33655
X221297Y14605
X199072Y31115
X192722Y33655
X51435Y88265
X180022Y31115
X173673Y33655
X208597Y50165
T4
X260217Y66932
X282104Y38332
X94917Y9418
X3716Y38332
T5
X90170Y66675
X100330Y66675
T6
X253687Y53210
X253687Y46707
X258208Y46707
X157163Y47531
X258208Y53210
T7
X84463Y20241
X58412Y20241
X65412Y20241
X6025Y20241
X13025Y20241
X32219Y20241
X39219Y20241
X270193Y4445
X272733Y4445
X246380Y4445
X248920Y4445
X141605Y4445
X144145Y4445
X36830Y4445
X39370Y4445
X13017Y4445
X15557Y4445
X263128Y3644
X263128Y10644
X239316Y3644
X239316Y10644
X133686Y11369
X133686Y18369
X29766Y3644
X29766Y10644
X5953Y3644
X5953Y10644
X279797Y9453
X279797Y2453
X255984Y9453
X255984Y2453
X146364Y17553
X139364Y17553
X45244Y2453
X45244Y9453
X21431Y9453
X21431Y2453
X60642Y4445
X63182Y4445
X53578Y4834
X53578Y11834
X69056Y2453
X69056Y9453
X222567Y4445
X225107Y4445
X215503Y3644
X215503Y10644
X232172Y9453
X232172Y2453
X260819Y20241
X39291Y79844
X39291Y86844
X58341Y79844
X58341Y86844
X77391Y79844
X77391Y86844
X248841Y79844
X248841Y86844
X229791Y79844
X229791Y86844
X210741Y79844
X210741Y86844
X191691Y79844
X191691Y86844
X172641Y79844
X172641Y86844
X153591Y79844
X153591Y86844
X134541Y79844
X134541Y86844
X115491Y79844
X115491Y86844
X96441Y79844
X96441Y86844
X5953Y60794
X5953Y67794
X201216Y60794
X201216Y67794
X267891Y79844
X267891Y86844
X105966Y60794
X105966Y67794
X86916Y60794
X86916Y67794
X67866Y60794
X67866Y67794
X239169Y60867
X239169Y67867
X182166Y60794
X182166Y67794
X163116Y60794
X163116Y67794
X279202Y59008
X279202Y66008
X125016Y60794
X125016Y67794
X220266Y60794
X220266Y67794
X144066Y60794
X144066Y67794
X48816Y60794
X48816Y67794
X20241Y79844
X20241Y86844
X29766Y60794
X29766Y67794
X17264Y78653
X17264Y85653
X46355Y80645
X48895Y80645
X65405Y80645
X67945Y80645
X84455Y80645
X86995Y80645
X255905Y80645
X258445Y80645
X236855Y80645
X239395Y80645
X217805Y80645
X220345Y80645
X198755Y80645
X201295Y80645
X179705Y80645
X182245Y80645
X160655Y80645
X163195Y80645
X141605Y80645
X144145Y80645
X122555Y80645
X125095Y80645
X103505Y80645
X106045Y80645
X13017Y61595
X15557Y61595
X208280Y61595
X210820Y61595
X274955Y80645
X277495Y80645
X113030Y61595
X115570Y61595
X74930Y61595
X77470Y61595
X246380Y61595
X248920Y61595
X189230Y61595
X191770Y61595
X170180Y61595
X172720Y61595
X270193Y61595
X272733Y61595
X132080Y61595
X134620Y61595
X227330Y61595
X229870Y61595
X151130Y61595
X153670Y61595
X55880Y61595
X58420Y61595
X27305Y80645
X29845Y80645
X36830Y61595
X39370Y61595
X8255Y80645
X10795Y80645
X44125Y77391
X51125Y77391
X63175Y77391
X70175Y77391
X82225Y77391
X89225Y77391
X253675Y77391
X260675Y77391
X234625Y77391
X241625Y77391
X215575Y77391
X222575Y77391
X196525Y77391
X203525Y77391
X177475Y77391
X184475Y77391
X158425Y77391
X165425Y77391
X139375Y77391
X146375Y77391
X120325Y77391
X127325Y77391
X101275Y77391
X108275Y77391
X10788Y58341
X17788Y58341
X206050Y58341
X213050Y58341
X272725Y77391
X279725Y77391
X110800Y58341
X117800Y58341
X91750Y58341
X98750Y58341
X72700Y58341
X79700Y58341
X244150Y58341
X251150Y58341
X187000Y58341
X194000Y58341
X167950Y58341
X174950Y58341
X267935Y58823
X274935Y58823
X129850Y58341
X136850Y58341
X225100Y58341
X232100Y58341
X148900Y58341
X155900Y58341
X53650Y58341
X60650Y58341
X25075Y77391
X32075Y77391
X34600Y58341
X41600Y58341
X6025Y77391
X13025Y77391
X267811Y42545
X270351Y42545
X241617Y42545
X244157Y42545
X222567Y42545
X225107Y42545
X203517Y42545
X206057Y42545
X184467Y42545
X187007Y42545
X165418Y42545
X167958Y42545
X146368Y42545
X148908Y42545
X127317Y42545
X129857Y42545
X108267Y42545
X110807Y42545
X89217Y42545
X91757Y42545
X70168Y42545
X72708Y42545
X51117Y42545
X53657Y42545
X20161Y42545
X22701Y42545
X260747Y41744
X260747Y48744
X234553Y41744
X234553Y48744
X215503Y41744
X215503Y48744
X196453Y41744
X196453Y48744
X177403Y41744
X177403Y48744
X167806Y55959
X160806Y55959
X139303Y41744
X139303Y48744
X120253Y41744
X120253Y48744
X101203Y41744
X101203Y48744
X82153Y41744
X82153Y48744
X63103Y41744
X63103Y48744
X44053Y41744
X44053Y48744
X13097Y48744
X265581Y39291
X272581Y39291
X239387Y39291
X246387Y39291
X220337Y39291
X227337Y39291
X201287Y39291
X208287Y39291
X182237Y39291
X189237Y39291
X163188Y39291
X170188Y39291
X144138Y39291
X151138Y39291
X125087Y39291
X132088Y39291
X106037Y39291
X113037Y39291
X86988Y39291
X93987Y39291
X67938Y39291
X74938Y39291
X17931Y39291
X24931Y39291
X48887Y39291
X55887Y39291
X263049Y23495
X265589Y23495
X232092Y23495
X234632Y23495
X213042Y23495
X215582Y23495
X193992Y23495
X196532Y23495
X174942Y23495
X177482Y23495
X155893Y23495
X158433Y23495
X136843Y23495
X139383Y23495
X117792Y23495
X120332Y23495
X98742Y23495
X101282Y23495
X79693Y23495
X82233Y23495
X60642Y23495
X63182Y23495
X34449Y23495
X36989Y23495
X8255Y23495
X10795Y23495
X255959Y22643
X255959Y29643
X225028Y22694
X225028Y29694
X205978Y22694
X205978Y29694
X186928Y22694
X186928Y29694
X167878Y22694
X167878Y29694
X148828Y22694
X148828Y29694
X129778Y22694
X129778Y29694
X110728Y22694
X110728Y29694
X91678Y22694
X91678Y29694
X72628Y22694
X72628Y29694
X53578Y22694
X53578Y29694
X27515Y22643
X27515Y29643
X17264Y21503
X17264Y28503
X13097Y41744
X267819Y20241
X229862Y20241
X236862Y20241
X210812Y20241
X217812Y20241
X191762Y20241
X198762Y20241
X184009Y20900
X184009Y27900
X153663Y20241
X160663Y20241
X134329Y20796
X141329Y20796
X115562Y20241
X122562Y20241
X96512Y20241
X103512Y20241
X77463Y20241
T8
X268413Y98174
X264913Y98174
T9
X270313Y96174
X263013Y101474
X270313Y101474
X263013Y96174
T10
X168000Y14000
X120848Y11311
X168800Y8400
X120848Y10120
X168000Y7600
X120848Y8930
X168800Y6800
X120848Y7739
X167878Y5953
X120848Y6548
X178000Y2400
X120848Y5358
X178800Y1600
X120848Y4167
X179600Y2400
X120848Y2977
X180400Y1600
X178000Y17600
X178800Y18400
X175600Y18400
X184800Y7600
X168000Y10800
X184800Y6000
X174800Y2400
X173200Y17600
X179600Y17600
X190500Y16669
X168800Y13200
X168000Y9200
X184000Y6800
X174000Y1600
X172400Y18400
X180400Y18400
X269081Y94059
X188119Y16669
X176400Y2400
X175600Y1600
X168800Y10000
X173200Y2400
X195262Y5358
X232470Y14585
X168800Y11600
X184000Y10000
X184800Y14000
X184800Y9200
X184800Y10800
X184000Y11600
X184800Y12400
X174800Y17600
X168000Y12400
X177200Y1600
X176400Y17600
X184000Y13200
X184000Y8400
X172400Y1600
X174000Y18400
X177200Y18400
M30